# xmcd
#
# Track frame offsets: 
#        182
#        11105
#        21982
#        35212
#        47282
#        61142
#        74217
#        87822
#        102327
#        111652
#
# Disc length: 1662 seconds
#
# Revision: 7
# Processed by: cddbd v1.5.2PL0 Copyright (c) Steve Scherf et al.
# Submitted via: ExactAudioCopyFreeDBPlugin 1.0
#
DISCID=8d067c0a
DTITLE=George Strait - Greatest Hits
DYEAR=1985
DGENRE=Country
TTITLE0=Unwound
TTITLE1=Down And Out
TTITLE2=If You're Thinking You Want A Stranger (There's One Coming Hom
TTITLE2=e)
TTITLE3=Fool Hearted Memory
TTITLE4=Marina Del Rey
TTITLE5=Amarillo By Morning
TTITLE6=A Fire I Can't Put Out
TTITLE7=You Look So Good In Love
TTITLE8=Right Or Wrong
TTITLE9=Let's Fall To Pieces Together
EXTD=Ripped by Pixel Lord
EXTT0=
EXTT1=
EXTT2=
EXTT3=
EXTT4=
EXTT5=
EXTT6=
EXTT7=
EXTT8=
EXTT9=
PLAYORDER=
